<svg xmlns="http://www.w3.org/2000/svg" viewBox="0 0 96 96" role="img" aria-label="Pleasure Island Design mark">
  <rect width="96" height="96" rx="48" fill="#fbf7ec"/>
  <circle cx="48" cy="48" r="39" fill="#092f4f"/>
  <path d="M20 55c12 12 24 13 36 1 6-6 12-8 20-5-9 14-22 23-36 21-10-2-17-7-20-17Z" fill="#4f9ead"/>
  <path d="M24 43c9-18 28-26 48-16-7 2-12 7-16 16-6 15-18 22-36 20 8-3 12-10 4-20Z" fill="#e8d0a3"/>
  <path d="M29 58c12 3 22 0 31-9 5-5 10-7 16-6-5 8-12 14-21 19-11 5-20 4-26-4Z" fill="#fffaf0"/>
</svg>
